<svg id="visual" viewBox="0 0 900 600" width="900" height="600" xmlns="http://www.w3.org/2000/svg" xmlns:xlink="http://www.w3.org/1999/xlink" version="1.1"><path d="M0 49L82 49L82 49L164 49L164 91L245 91L245 79L327 79L327 97L409 97L409 115L491 115L491 97L573 97L573 61L655 61L655 97L736 97L736 55L818 55L818 127L900 127L900 85L900 0L900 0L818 0L818 0L736 0L736 0L655 0L655 0L573 0L573 0L491 0L491 0L409 0L409 0L327 0L327 0L245 0L245 0L164 0L164 0L82 0L82 0L0 0Z" fill="#aaaaaa"></path><path d="M0 103L82 103L82 115L164 115L164 133L245 133L245 157L327 157L327 193L409 193L409 217L491 217L491 151L573 151L573 133L655 133L655 133L736 133L736 157L818 157L818 163L900 163L900 157L900 83L900 125L818 125L818 53L736 53L736 95L655 95L655 59L573 59L573 95L491 95L491 113L409 113L409 95L327 95L327 77L245 77L245 89L164 89L164 47L82 47L82 47L0 47Z" fill="#858789"></path><path d="M0 301L82 301L82 277L164 277L164 271L245 271L245 379L327 379L327 325L409 325L409 415L491 415L491 367L573 367L573 349L655 349L655 343L736 343L736 307L818 307L818 439L900 439L900 337L900 155L900 161L818 161L818 155L736 155L736 131L655 131L655 131L573 131L573 149L491 149L491 215L409 215L409 191L327 191L327 155L245 155L245 131L164 131L164 113L82 113L82 101L0 101Z" fill="#62656a"></path><path d="M0 391L82 391L82 421L164 421L164 325L245 325L245 463L327 463L327 421L409 421L409 505L491 505L491 463L573 463L573 439L655 439L655 445L736 445L736 379L818 379L818 511L900 511L900 427L900 335L900 437L818 437L818 305L736 305L736 341L655 341L655 347L573 347L573 365L491 365L491 413L409 413L409 323L327 323L327 377L245 377L245 269L164 269L164 275L82 275L82 299L0 299Z" fill="#41454d"></path><path d="M0 601L82 601L82 601L164 601L164 601L245 601L245 601L327 601L327 601L409 601L409 601L491 601L491 601L573 601L573 601L655 601L655 601L736 601L736 601L818 601L818 601L900 601L900 601L900 425L900 509L818 509L818 377L736 377L736 443L655 443L655 437L573 437L573 461L491 461L491 503L409 503L409 419L327 419L327 461L245 461L245 323L164 323L164 419L82 419L82 389L0 389Z" fill="#222831"></path></svg>